<svg width="51" height="51" viewBox="0 0 51 51" fill="none" xmlns="http://www.w3.org/2000/svg">
<path fill-rule="evenodd" clip-rule="evenodd" d="M0.25 25.25C0.25 11.443 11.443 0.25 25.25 0.25C39.057 0.25 50.25 11.443 50.25 25.25C50.25 39.057 39.057 50.25 25.25 50.25C11.443 50.25 0.25 39.057 0.25 25.25ZM20.8244 8.66163C21.0177 8.53843 21.2334 8.45454 21.4591 8.41474C21.6848 8.37495 21.9162 8.38004 22.1399 8.42971C22.3637 8.47939 22.5755 8.57268 22.7631 8.70425C22.9508 8.83582 23.1107 9.0031 23.2337 9.19651L25.25 12.3663L27.2663 9.19651C27.5148 8.80609 27.9083 8.5304 28.3602 8.43009C28.812 8.32978 29.2852 8.41306 29.6756 8.66163C30.066 8.91019 30.3417 9.30367 30.442 9.7555C30.5423 10.2073 30.459 10.6805 30.2105 11.0709L27.3174 15.6151L35.2988 28.157H38.0407C38.5033 28.157 38.9469 28.3407 39.274 28.6678C39.6011 28.9949 39.7849 29.4386 39.7849 29.9012C39.7849 30.3637 39.6011 30.8074 39.274 31.1345C38.9469 31.4616 38.5033 31.6453 38.0407 31.6453H37.5174L39.5128 34.7779C39.6359 34.9712 39.7197 35.1869 39.7594 35.4126C39.7991 35.6383 39.794 35.8696 39.7443 36.0933C39.6947 36.3171 39.6014 36.5288 39.4699 36.7165C39.3384 36.9042 39.1712 37.0641 38.9779 37.1872C38.7846 37.3103 38.5689 37.3941 38.3432 37.4338C38.1175 37.4735 37.8862 37.4684 37.6625 37.4187C37.4388 37.3691 37.227 37.2758 37.0393 37.1443C36.8516 37.0128 36.6917 36.8456 36.5686 36.6523L25.25 18.864L19.336 28.157H28.7384C29.201 28.157 29.6446 28.3407 29.9717 28.6678C30.2988 28.9949 30.4826 29.4386 30.4826 29.9012C30.4826 30.3637 30.2988 30.8074 29.9717 31.1345C29.6446 31.4616 29.201 31.6453 28.7384 31.6453H17.1174L13.9314 36.6523C13.8083 36.8456 13.6484 37.0128 13.4607 37.1443C13.273 37.2758 13.0612 37.3691 12.8375 37.4187C12.6138 37.4684 12.3825 37.4735 12.1568 37.4338C11.9311 37.3941 11.7154 37.3103 11.5221 37.1872C11.3288 37.0641 11.1616 36.9042 11.0301 36.7165C10.8986 36.5288 10.8053 36.3171 10.7557 36.0933C10.706 35.8696 10.7009 35.6383 10.7406 35.4126C10.7803 35.1869 10.8641 34.9712 10.9872 34.7779L12.9826 31.6453H12.4593C11.9967 31.6453 11.5531 31.4616 11.226 31.1345C10.8989 30.8074 10.7151 30.3637 10.7151 29.9012C10.7151 29.4386 10.8989 28.9949 11.226 28.6678C11.5531 28.3407 11.9967 28.157 12.4593 28.157H15.2035L23.1826 15.6151L20.2895 11.0709C20.1663 10.8776 20.0824 10.662 20.0426 10.4363C20.0029 10.2105 20.0079 9.97918 20.0576 9.75542C20.1073 9.53166 20.2006 9.31989 20.3322 9.13221C20.4637 8.94453 20.631 8.78462 20.8244 8.66163Z" fill="black"/>
</svg>
