<svg width="200" height="200" viewBox="0 0 200 200" fill="none" xmlns="http://www.w3.org/2000/svg">
<g clip-path="url(#clip0_58_82)">
<path d="M200 100C200 44.7719 155.228 0 100 0C44.7719 0 0 44.7711 0 100C0 149.913 36.5687 191.284 84.375 198.785V128.906H58.9844V100H84.375V77.9688C84.375 52.9063 99.3047 39.0625 122.146 39.0625C133.088 39.0625 144.531 41.0156 144.531 41.0156V65.625H131.922C119.498 65.625 115.625 73.3336 115.625 81.2422V100H143.359L138.926 128.906H115.625V198.785C163.431 191.284 200 149.913 200 100Z" fill="#1877F2"/>
<path d="M138.926 128.906L143.359 100H115.625V81.2422C115.625 73.3328 119.499 65.625 131.922 65.625H144.531V41.0156C144.531 41.0156 133.088 39.0625 122.146 39.0625C99.3047 39.0625 84.375 52.9063 84.375 77.9688V100H58.9844V128.906H84.375V198.785C89.5439 199.595 94.768 200.001 100 200C105.232 200.002 110.456 199.595 115.625 198.785V128.906H138.926Z" fill="white"/>
</g>
<defs>
<clipPath id="clip0_58_82">
<rect width="200" height="200" fill="white"/>
</clipPath>
</defs>
</svg>
