<svg width="200" height="200" viewBox="0 0 200 200" fill="none" xmlns="http://www.w3.org/2000/svg">
<g clip-path="url(#clip0_58_85)">
<path d="M153.125 0H46.875C20.9867 0 0 20.9867 0 46.875V153.125C0 179.013 20.9867 200 46.875 200H153.125C179.013 200 200 179.013 200 153.125V46.875C200 20.9867 179.013 0 153.125 0Z" fill="white"/>
<path d="M153.125 0H46.875C20.9867 0 0 20.9867 0 46.875V153.125C0 179.013 20.9867 200 46.875 200H153.125C179.013 200 200 179.013 200 153.125V46.875C200 20.9867 179.013 0 153.125 0Z" fill="#0A66C2"/>
<path d="M144.309 170.066H167.176C168.004 170.066 168.799 169.737 169.385 169.151C169.971 168.566 170.301 167.771 170.301 166.942L170.312 118.628C170.312 93.3758 164.871 73.9656 135.361 73.9656C124.143 73.5484 113.564 79.3312 107.855 88.9875C107.828 89.0344 107.785 89.0709 107.734 89.0914C107.684 89.1119 107.628 89.1153 107.575 89.101C107.523 89.0867 107.476 89.0556 107.443 89.0124C107.409 88.9692 107.391 88.9163 107.391 88.8617V79.4219C107.391 78.5931 107.061 77.7982 106.475 77.2122C105.889 76.6261 105.094 76.2969 104.266 76.2969H82.5648C81.736 76.2969 80.9412 76.6261 80.3551 77.2122C79.7691 77.7982 79.4398 78.5931 79.4398 79.4219V166.937C79.4398 167.766 79.7691 168.561 80.3551 169.147C80.9412 169.733 81.736 170.062 82.5648 170.062H105.43C106.259 170.062 107.054 169.733 107.64 169.147C108.226 168.561 108.555 167.766 108.555 166.937V123.677C108.555 111.445 110.876 99.5992 126.041 99.5992C140.99 99.5992 141.184 113.596 141.184 124.47V166.941C141.184 167.77 141.513 168.565 142.099 169.151C142.685 169.737 143.48 170.066 144.309 170.066ZM29.6875 46.5836C29.6875 55.8531 37.318 63.4797 46.5875 63.4797C55.8547 63.4789 63.4805 55.8477 63.4805 46.5805C63.4789 37.3133 55.8523 29.6875 46.5844 29.6875C37.3141 29.6875 29.6875 37.3148 29.6875 46.5836ZM35.1242 170.066H58.0203C58.8491 170.066 59.644 169.737 60.23 169.151C60.8161 168.565 61.1453 167.77 61.1453 166.941V79.4219C61.1453 78.5931 60.8161 77.7982 60.23 77.2122C59.644 76.6261 58.8491 76.2969 58.0203 76.2969H35.1242C34.2954 76.2969 33.5006 76.6261 32.9145 77.2122C32.3285 77.7982 31.9992 78.5931 31.9992 79.4219V166.941C31.9992 167.77 32.3285 168.565 32.9145 169.151C33.5006 169.737 34.2954 170.066 35.1242 170.066Z" fill="white"/>
</g>
<defs>
<clipPath id="clip0_58_85">
<rect width="200" height="200" fill="white"/>
</clipPath>
</defs>
</svg>
