<svg width="52" height="50" viewBox="0 0 52 50" fill="none" xmlns="http://www.w3.org/2000/svg">
<path fill-rule="evenodd" clip-rule="evenodd" d="M37.605 5.33264C36.3552 5.332 35.1225 5.62422 34.006 6.18585C32.8894 6.74749 31.92 7.56293 31.1754 8.56679C30.4308 9.57064 29.9317 10.735 29.7183 11.9665C29.5048 13.198 29.5828 14.4624 29.9461 15.6583L30.4084 17.1872L29.2812 18.3179L7.04412 40.5515C6.6009 40.9947 6.3519 41.5958 6.3519 42.2226C6.3519 42.8494 6.6009 43.4506 7.04412 43.8938C7.48734 44.337 8.08847 44.586 8.71528 44.586C9.34208 44.586 9.94322 44.337 10.3864 43.8938L32.62 21.6531L33.7507 20.5224L35.2796 20.9847C36.7651 21.4371 38.3502 21.4475 39.8415 21.0145C41.3328 20.5815 42.6658 19.7239 43.678 18.5462C44.6902 17.3685 45.3377 15.9217 45.5417 14.3823C45.7456 12.8429 45.4972 11.2774 44.8266 9.87677L39.4931 15.2138C39.2472 15.4686 38.953 15.6719 38.6277 15.8118C38.3025 15.9518 37.9526 16.0255 37.5985 16.0287C37.2444 16.032 36.8932 15.9647 36.5654 15.8307C36.2376 15.6968 35.9398 15.4989 35.6893 15.2487C35.4388 14.9984 35.2406 14.7007 35.1064 14.3731C34.9721 14.0454 34.9045 13.6943 34.9074 13.3402C34.9103 12.9861 34.9837 12.6361 35.1233 12.3107C35.2629 11.9853 35.4659 11.6909 35.7205 11.4448L41.054 6.11133C39.9775 5.59552 38.7988 5.33174 37.605 5.33264ZM24.2713 13.3329C24.2715 10.5989 25.1122 7.93111 26.6793 5.6909C28.2465 3.45069 30.4644 1.74636 33.0326 0.808822C35.6007 -0.128717 38.395 -0.254147 41.0369 0.449527C43.6787 1.1532 46.0404 2.65196 47.802 4.74276C49.5636 6.83355 50.6398 9.41531 50.885 12.1382C51.1302 14.8612 50.5324 17.5937 49.1727 19.9655C47.813 22.3374 45.757 24.2339 43.2834 25.3982C40.8097 26.5625 38.038 26.9383 35.3436 26.4746L33.3773 28.4444L36.7161 31.7868L38.3873 30.1156L40.2718 28.2311L42.1563 30.1156L48.8231 36.7825C49.5556 37.4928 50.1394 38.3418 50.5407 39.2799C50.942 40.2181 51.1526 41.2267 51.1604 42.247C51.1682 43.2673 50.973 44.279 50.5862 45.2232C50.1993 46.1674 49.6285 47.0252 48.907 47.7467C48.1855 48.4682 47.3277 49.0389 46.3835 49.4258C45.4394 49.8127 44.4277 50.0079 43.4073 50.0001C42.387 49.9923 41.3784 49.7816 40.4403 49.3803C39.5022 48.9791 38.6532 48.3952 37.9428 47.6628L31.2759 40.9959L29.3914 39.1114L31.2759 37.2269L32.9471 35.5558L29.6048 32.2134L14.1554 47.6628C13.4451 48.3952 12.5961 48.9791 11.658 49.3803C10.7198 49.7816 9.71123 49.9923 8.6909 50.0001C7.67057 50.0079 6.65889 49.8127 5.71471 49.4258C4.77054 49.0389 3.91274 48.4682 3.19124 47.7467C2.46974 47.0252 1.89895 46.1674 1.51209 45.2232C1.12522 44.279 0.930012 43.2673 0.937817 42.247C0.945622 41.2267 1.15629 40.2181 1.55755 39.2799C1.95881 38.3418 2.54266 37.4928 3.27512 36.7825L18.7209 21.3331L10.0487 12.6573L7.85481 14.8511L6.05209 12.1453L2.49643 6.81179L1.28395 4.99129L2.83066 3.44814L4.60849 1.67031L6.15165 0.123595L7.97214 1.33608L13.3056 4.89174L16.0115 6.69446L13.8212 8.8883L22.4935 17.5641L24.4633 15.5943C24.3355 14.8473 24.2712 14.0907 24.2713 13.3329ZM40.2718 35.7691L45.0541 40.5515C45.4974 40.9947 45.7463 41.5958 45.7463 42.2226C45.7463 42.8494 45.4974 43.4506 45.0541 43.8938C44.6109 44.337 44.0098 44.586 43.383 44.586C42.7562 44.586 42.155 44.337 41.7118 43.8938L36.933 39.1114L40.2718 35.7691Z" fill="black"/>
</svg>
