<svg width="55" height="50" viewBox="0 0 55 50" fill="none" xmlns="http://www.w3.org/2000/svg">
<path d="M32.5 40.7875C29.7578 39.4814 27.4005 37.4875 25.6575 35H5V5H50V10.66C52.0257 12.0806 53.7293 13.9121 55 16.035V5C54.996 3.67513 54.468 2.40566 53.5312 1.46884C52.5943 0.532012 51.3249 0.00395682 50 0H5C3.67513 0.00395682 2.40566 0.532012 1.46884 1.46884C0.532012 2.40566 0.00395682 3.67513 0 5V35C0.00395682 36.3249 0.532012 37.5943 1.46884 38.5312C2.40566 39.468 3.67513 39.996 5 40H22.5V45H17.5V50H37.5V45H32.5V40.7875Z" fill="black"/>
<path d="M40 10C37.0333 10 34.1332 10.8797 31.6665 12.528C29.1997 14.1762 27.2771 16.5189 26.1418 19.2597C25.0065 22.0006 24.7094 25.0166 25.2882 27.9264C25.867 30.8361 27.2956 33.5088 29.3934 35.6066C31.4912 37.7044 34.1639 39.133 37.0737 39.7118C39.9834 40.2906 42.9994 39.9935 45.7403 38.8582C48.4811 37.7229 50.8238 35.8003 52.472 33.3336C54.1203 30.8668 55 27.9667 55 25C55.0007 23.03 54.6131 21.0792 53.8595 19.259C53.1059 17.4388 52.0011 15.7849 50.6081 14.3919C49.2151 12.9989 47.5612 11.8941 45.741 11.1405C43.9209 10.3869 41.97 9.99934 40 10ZM40 35C38.0222 35 36.0888 34.4135 34.4443 33.3147C32.7998 32.2159 31.5181 30.6541 30.7612 28.8268C30.0043 26.9996 29.8063 24.9889 30.1922 23.0491C30.578 21.1093 31.5304 19.3275 32.9289 17.9289C34.3275 16.5304 36.1093 15.578 38.0491 15.1921C39.9889 14.8063 41.9996 15.0043 43.8268 15.7612C45.6541 16.5181 47.2159 17.7998 48.3147 19.4443C49.4135 21.0888 50 23.0222 50 25C49.9967 27.6512 48.9421 30.1928 47.0674 32.0674C45.1928 33.9421 42.6512 34.9967 40 35Z" fill="black"/>
<path d="M40 27.5C41.3807 27.5 42.5 26.3807 42.5 25C42.5 23.6193 41.3807 22.5 40 22.5C38.6193 22.5 37.5 23.6193 37.5 25C37.5 26.3807 38.6193 27.5 40 27.5Z" fill="black"/>
</svg>
