<svg width="50" height="50" viewBox="0 0 50 50" fill="none" xmlns="http://www.w3.org/2000/svg">
<path d="M6.25 31.25H15.625C16.4538 31.25 17.2487 31.5792 17.8347 32.1653C18.4208 32.7513 18.75 33.5462 18.75 34.375V43.75C18.75 44.5788 18.4208 45.3737 17.8347 45.9597C17.2487 46.5458 16.4538 46.875 15.625 46.875H6.25C5.4212 46.875 4.62634 46.5458 4.04029 45.9597C3.45424 45.3737 3.125 44.5788 3.125 43.75V34.375C3.125 33.5462 3.45424 32.7513 4.04029 32.1653C4.62634 31.5792 5.4212 31.25 6.25 31.25ZM34.375 3.125H43.75C44.5788 3.125 45.3737 3.45424 45.9597 4.04029C46.5458 4.62634 46.875 5.4212 46.875 6.25V15.625C46.875 16.4538 46.5458 17.2487 45.9597 17.8347C45.3737 18.4208 44.5788 18.75 43.75 18.75H34.375C33.5462 18.75 32.7513 18.4208 32.1653 17.8347C31.5792 17.2487 31.25 16.4538 31.25 15.625V6.25C31.25 5.4212 31.5792 4.62634 32.1653 4.04029C32.7513 3.45424 33.5462 3.125 34.375 3.125ZM34.375 31.25C33.5462 31.25 32.7513 31.5792 32.1653 32.1653C31.5792 32.7513 31.25 33.5462 31.25 34.375V43.75C31.25 44.5788 31.5792 45.3737 32.1653 45.9597C32.7513 46.5458 33.5462 46.875 34.375 46.875H43.75C44.5788 46.875 45.3737 46.5458 45.9597 45.9597C46.5458 45.3737 46.875 44.5788 46.875 43.75V34.375C46.875 33.5462 46.5458 32.7513 45.9597 32.1653C45.3737 31.5792 44.5788 31.25 43.75 31.25H34.375ZM34.375 0C32.7174 0 31.1277 0.65848 29.9556 1.83058C28.7835 3.00269 28.125 4.5924 28.125 6.25V15.625C28.125 17.2826 28.7835 18.8723 29.9556 20.0444C31.1277 21.2165 32.7174 21.875 34.375 21.875H43.75C45.4076 21.875 46.9973 21.2165 48.1694 20.0444C49.3415 18.8723 50 17.2826 50 15.625V6.25C50 4.5924 49.3415 3.00269 48.1694 1.83058C46.9973 0.65848 45.4076 0 43.75 0L34.375 0ZM6.25 28.125C4.5924 28.125 3.00269 28.7835 1.83058 29.9556C0.65848 31.1277 0 32.7174 0 34.375L0 43.75C0 45.4076 0.65848 46.9973 1.83058 48.1694C3.00269 49.3415 4.5924 50 6.25 50H15.625C17.2826 50 18.8723 49.3415 20.0444 48.1694C21.2165 46.9973 21.875 45.4076 21.875 43.75V34.375C21.875 32.7174 21.2165 31.1277 20.0444 29.9556C18.8723 28.7835 17.2826 28.125 15.625 28.125H6.25ZM28.125 34.375C28.125 32.7174 28.7835 31.1277 29.9556 29.9556C31.1277 28.7835 32.7174 28.125 34.375 28.125H43.75C45.4076 28.125 46.9973 28.7835 48.1694 29.9556C49.3415 31.1277 50 32.7174 50 34.375V43.75C50 45.4076 49.3415 46.9973 48.1694 48.1694C46.9973 49.3415 45.4076 50 43.75 50H34.375C32.7174 50 31.1277 49.3415 29.9556 48.1694C28.7835 46.9973 28.125 45.4076 28.125 43.75V34.375ZM0 6.25C0 4.5924 0.65848 3.00269 1.83058 1.83058C3.00269 0.65848 4.5924 0 6.25 0L15.625 0C17.2826 0 18.8723 0.65848 20.0444 1.83058C21.2165 3.00269 21.875 4.5924 21.875 6.25V15.625C21.875 17.2826 21.2165 18.8723 20.0444 20.0444C18.8723 21.2165 17.2826 21.875 15.625 21.875H6.25C4.5924 21.875 3.00269 21.2165 1.83058 20.0444C0.65848 18.8723 0 17.2826 0 15.625V6.25ZM16.7313 8.91875C16.8765 8.77348 16.9918 8.60101 17.0704 8.4112C17.149 8.22139 17.1895 8.01795 17.1895 7.8125C17.1895 7.60705 17.149 7.40361 17.0704 7.2138C16.9918 7.02399 16.8765 6.85152 16.7313 6.70625C16.586 6.56097 16.4135 6.44574 16.2237 6.36711C16.0339 6.28849 15.8304 6.24803 15.625 6.24803C15.4196 6.24803 15.2161 6.28849 15.0263 6.36711C14.8365 6.44574 14.664 6.56097 14.5187 6.70625L9.375 11.8531L7.35625 9.83125C7.21098 9.68597 7.03851 9.57074 6.8487 9.49211C6.65889 9.41349 6.45545 9.37303 6.25 9.37303C6.04455 9.37303 5.84111 9.41349 5.6513 9.49211C5.46149 9.57074 5.28902 9.68597 5.14375 9.83125C4.99848 9.97652 4.88324 10.149 4.80461 10.3388C4.72599 10.5286 4.68553 10.7321 4.68553 10.9375C4.68553 11.1429 4.72599 11.3464 4.80461 11.5362C4.88324 11.726 4.99848 11.8985 5.14375 12.0438L8.26875 15.1688C8.41389 15.3143 8.58632 15.4297 8.77614 15.5085C8.96597 15.5872 9.16948 15.6278 9.375 15.6278C9.58052 15.6278 9.78403 15.5872 9.97386 15.5085C10.1637 15.4297 10.3361 15.3143 10.4813 15.1688L16.7313 8.91875Z" fill="black"/>
</svg>
